<?xml version="1.0" encoding="UTF-8"?>
<svg id="_Слой_2" data-name="Слой 2" xmlns="http://www.w3.org/2000/svg" xmlns:xlink="http://www.w3.org/1999/xlink" viewBox="0 0 480 256">
  <defs>
    <style>
      .cls-1 {
        fill: url(#linear-gradient-2);
      }

      .cls-2 {
        fill: #69da85;
      }

      .cls-3 {
        fill: url(#linear-gradient);
      }
    </style>
    <linearGradient id="linear-gradient" x1="-3" y1="128" x2="471.46" y2="128" gradientUnits="userSpaceOnUse">
      <stop offset="0" stop-color="#fff" stop-opacity="0"/>
      <stop offset="1" stop-color="#fff"/>
    </linearGradient>
    <linearGradient id="linear-gradient-2" y1="127.95" x2="471.46" y2="127.95" xlink:href="#linear-gradient"/>
  </defs>
  <g id="Layer_1" data-name="Layer 1">
    <g>
      <path class="cls-3" d="M370.3,0H61.7C27.7,0,0,27.7,0,61.7v132.6c0,34,27.7,61.7,61.7,61.7h308.6c34,0,61.7-27.7,61.7-61.7V61.7c0-34-27.7-61.7-61.7-61.7ZM400,194.3c0,16.4-13.3,29.7-29.7,29.7H61.7c-16.4,0-29.7-13.3-29.7-29.7V61.7c0-16.4,13.3-29.7,29.7-29.7h308.6c16.4,0,29.7,13.3,29.7,29.7v132.6Z"/>
      <path class="cls-1" d="M464,74.6c-8.8,0-16,7.2-16,16v74.7c0,8.8,7.2,16,16,16s16-7.1,16-16v-74.7c0-8.8-7.2-16-16-16Z"/>
    </g>
    <path class="cls-2" d="M358.3,54.9H73.7c-11,0-20,9-20,20v106.2c0,11,9,20,20,20h284.6c11,0,20-9,20-20.1v-106.1c0-11-9-20-20-20ZM210.78,161.22h-50.9v-11.11l15.18-13.6c4.69-4.21,8.36-7.71,11.01-10.5,2.65-2.78,4.52-5.23,5.6-7.34,1.09-2.11,1.63-4.23,1.63-6.37,0-3.16-1.04-5.59-3.13-7.29-2.09-1.7-5.07-2.55-8.94-2.55-3.09,0-6.06.61-8.92,1.83-2.85,1.22-5.42,3.02-7.69,5.4l-5.76-12.28c3.23-2.89,6.95-5.12,11.16-6.7,4.21-1.58,8.51-2.37,12.89-2.37,5.26,0,9.85.92,13.76,2.75,3.91,1.83,6.92,4.39,9.04,7.67,2.12,3.28,3.18,7.09,3.18,11.44,0,2.92-.58,5.77-1.73,8.56-1.16,2.79-3.18,5.92-6.09,9.4-2.9,3.48-6.99,7.7-12.25,12.66l-6.98,6.52h28.94v13.86ZM274.62,147.82h-9.73v13.4h-13.96v-13.4h-33.88v-12.02l22.57-45.91h16.66l-21.91,44.43h16.56v-13.91h13.96v13.91h9.73v13.5Z"/>
  </g>
</svg>