<?xml version="1.0" encoding="UTF-8"?>
<svg id="_Слой_2" data-name="Слой 2" xmlns="http://www.w3.org/2000/svg" viewBox="0 0 150 50">
  <defs>
    <style>
      .cls-1 {
        fill: #fff;
      }

      .cls-2 {
        fill: #007ec7;
      }
    </style>
  </defs>
  <g id="Layer_1" data-name="Layer 1">
    <polygon class="cls-2" points="0 6 16.02 50 133.75 50 150 0 0 6"/>
    <polygon class="cls-1" points="52.59 38.49 38.91 38.49 36.28 30.38 33.64 38.49 20.55 38.49 13.81 17.5 26.03 17.5 29.25 28.04 32.18 17.5 40.09 17.5 43.81 26.87 46.74 17.5 59.25 17.5 52.59 38.49"/>
    <rect class="cls-1" x="61.29" y="17.5" width="13.97" height="20.99"/>
    <polygon class="cls-1" points="104.09 24.23 97.72 24.23 97.72 38.49 84.05 38.49 84.05 24.24 78.2 24.24 78.2 17.5 104.09 17.5 104.09 24.23"/>
    <polygon class="cls-1" points="132.5 24.23 126.55 24.23 126.55 38.49 112.89 38.49 112.89 24.24 106.61 24.24 106.61 17.5 132.5 17.5 132.5 24.23"/>
  </g>
</svg>