<?xml version="1.0" encoding="UTF-8"?>
<svg id="_Слой_2" data-name="Слой 2" xmlns="http://www.w3.org/2000/svg" xmlns:xlink="http://www.w3.org/1999/xlink" viewBox="0 0 399.1 399.1">
  <defs>
    <style>
      .cls-1 {
        fill: #fff;
      }

      .cls-2 {
        fill: #d33333;
      }

      .cls-3 {
        fill: url(#linear-gradient);
      }
    </style>
    <linearGradient id="linear-gradient" x1="199.55" y1="342.91" x2="199.55" y2="56.19" gradientUnits="userSpaceOnUse">
      <stop offset="0" stop-color="#fff" stop-opacity="0"/>
      <stop offset="1" stop-color="#fff"/>
    </linearGradient>
  </defs>
  <g id="_08.bullseye" data-name="08.bullseye">
    <path class="cls-3" d="M199.55,56.19c-79.03,0-143.36,64.33-143.36,143.36s64.33,143.36,143.36,143.36,143.36-64.33,143.36-143.36S278.58,56.19,199.55,56.19Z"/>
    <path class="cls-1" d="M199.55,0C89.53,0,0,89.53,0,199.55s89.53,199.55,199.55,199.55,199.55-89.53,199.55-199.55S309.56,0,199.55,0ZM199.55,388.59c-104.24,0-189.05-84.81-189.05-189.05S95.31,10.5,199.55,10.5s189.05,84.81,189.05,189.05-84.81,189.05-189.05,189.05Z"/>
    <path class="cls-2" d="M199.55,161.21c-21.01,0-38.33,17.07-38.33,38.33s17.07,38.33,38.33,38.33,38.33-17.07,38.33-38.33-17.33-38.33-38.33-38.33Z"/>
    <path class="cls-2" d="M199.55,227.38c-15.23,0-27.83-12.34-27.83-27.83s12.34-27.83,27.83-27.83,27.83,12.34,27.83,27.83-12.6,27.83-27.83,27.83Z"/>
    <path class="cls-2" d="M199.55,105.03c-51.99,0-94.52,42.27-94.52,94.52s42.27,94.52,94.52,94.52,94.52-42.27,94.52-94.52-42.54-94.52-94.52-94.52ZM199.55,283.57c-46.21,0-84.02-37.55-84.02-84.02s37.55-84.02,84.02-84.02,84.02,37.55,84.02,84.02-37.81,84.02-84.02,84.02Z"/>
  </g>
</svg>