<?xml version="1.0" encoding="UTF-8"?>
<svg id="_Слой_2" data-name="Слой 2" xmlns="http://www.w3.org/2000/svg" xmlns:xlink="http://www.w3.org/1999/xlink" viewBox="0 0 512 512">
  <defs>
    <style>
      .cls-1 {
        fill: url(#linear-gradient-2);
      }

      .cls-2 {
        fill: #fff;
      }

      .cls-3 {
        fill: url(#linear-gradient);
      }
    </style>
    <linearGradient id="linear-gradient" x1="47" y1="507.55" x2="47" y2="38.55" gradientUnits="userSpaceOnUse">
      <stop offset="0" stop-color="#6b798a" stop-opacity=".3"/>
      <stop offset="1" stop-color="#69788a"/>
    </linearGradient>
    <linearGradient id="linear-gradient-2" x1="256" y1="507.55" x2="256" y2="38.55" xlink:href="#linear-gradient"/>
  </defs>
  <g id="Capa_1" data-name="Capa 1">
    <g>
      <circle class="cls-3" cx="47" cy="47" r="47"/>
      <path class="cls-1" d="M471.98,265.84c20.1-24.53,31.02-55.08,31.02-87.52,0-75.64-60.56-137.18-135-137.18-30.7,0-60.52,10.78-84.3,30.06-17.75-23.68-45.75-38.21-75.7-38.21-50.12,0-91.29,39.6-94.76,89.61-.41,0-.82,0-1.24,0C50.24,122.6,0,173.18,0,235.34c0,22.86,6.93,44.96,20.04,63.9,9.65,13.94,22.08,25.43,36.46,33.8-4.93,12.93-7.5,26.79-7.5,40.78,0,62.17,49.79,112.74,111,112.74,34.62,0,66.52-16.22,87.23-42.96,26.02,41.81,71.63,68.4,120.77,68.4,38.25,0,74.37-15.33,101.71-43.16,27.27-27.76,42.29-64.4,42.29-103.17s-14.43-72.57-40.02-99.83Z"/>
    </g>
    <g>
      <path class="cls-2" d="M115.94,317.95v-21.8l29.8-26.7c9.2-8.27,16.4-15.13,21.6-20.6,5.2-5.47,8.87-10.27,11-14.4,2.13-4.13,3.2-8.3,3.2-12.5,0-6.2-2.05-10.97-6.15-14.3-4.1-3.33-9.95-5-17.55-5-6.07,0-11.9,1.2-17.5,3.6-5.6,2.4-10.63,5.93-15.1,10.6l-11.3-24.1c6.33-5.67,13.63-10.05,21.9-13.15,8.27-3.1,16.7-4.65,25.3-4.65,10.33,0,19.33,1.8,27,5.4,7.67,3.6,13.58,8.62,17.75,15.05,4.17,6.43,6.25,13.92,6.25,22.45,0,5.73-1.13,11.33-3.4,16.8-2.27,5.47-6.25,11.62-11.95,18.45-5.7,6.83-13.72,15.12-24.05,24.85l-13.7,12.8h56.8v27.2h-99.9Z"/>
      <path class="cls-2" d="M258.6,317.95v-56.58h15.81l22.96,34.95-7.77.11,21.52-35.06h15.81v56.58h-15.92l.22-36.66,3.55,1.39-16.64,25.68h-10.71l-17.69-25.74,3.49-1.39.33,36.72h-14.98Z"/>
      <path class="cls-2" d="M342.07,319.34l-5.88-16.09c3.81-.96,6.57-2.37,8.29-4.21,1.72-1.85,2.81-4.34,3.27-7.46.46-3.12.69-7.09.69-11.9v-18.3h49.87v56.58h-18.19v-42.16h-15.14v3.88c0,5.77-.34,10.88-1.03,15.34-.68,4.46-1.87,8.31-3.55,11.56-1.68,3.25-4,5.94-6.96,8.04-2.96,2.11-6.75,3.68-11.37,4.71Z"/>
    </g>
  </g>
</svg>